# xmcd CD database file
#
# Track frame offsets:
#	150
#	26319
#	66725
#	106612
#	133437
#	175190
#	214572
#	250270
#	275467
#
# Disc length: 4081 seconds
#
# Revision: 0
# Processed by: cddbd v1.5.1PL2 Copyright (c) Steve Scherf et al.
# Submitted via: CDex 1.51
#
DISCID=810fef09
DTITLE=SUGIURUMN - House Beat Evolution
DYEAR=2006
DGENRE=House
TTITLE0=Star baby(Axwell Cyberjapan Remix)
TTITLE1=Sweet amazing(Malawi Rocks Remix)
TTITLE2=Boogie Nights(Sugiurumn 2006 Mix)
TTITLE3=x-taxi(Steve Angello Cyberjapan Remix)
TTITLE4=Hot plate(Santos Jet Lag Dub)
TTITLE5=galaxy(Kaskade Remix)
TTITLE6=Electrify My love(Infusion Remix)
TTITLE7=re:music(EERECTIONN Remix)
TTITLE8=Star baby(YODA's Sunset Of ES Vedra Mix)
EXTD=YEAR: 2006
EXTT0=
EXTT1=
EXTT2=
EXTT3=
EXTT4=
EXTT5=
EXTT6=
EXTT7=
EXTT8=
PLAYORDER=
